<svg width="680" height="360" viewBox="0 0 680 360" xmlns="http://www.w3.org/2000/svg" font-family="'Helvetica Neue', Arial, sans-serif">
<defs>
  <linearGradient id="gr" x1="0%" y1="0%" x2="100%" y2="0%"><stop offset="0%" stop-color="#00C2E0"/><stop offset="100%" stop-color="#4ADE5C"/></linearGradient>
</defs>
<rect width="680" height="360" fill="#141C22"/>
<text x="340" y="22" text-anchor="middle" font-size="10" font-weight="700" letter-spacing="4" fill="url(#gr)" opacity="0.8">BUILT FOR</text>
<!-- Card 1: Regional Investors -->
<rect x="8" y="32" width="326" height="140" rx="10" fill="#1a2f3a" opacity="0.9"/>
<rect x="8" y="32" width="326" height="140" rx="10" fill="none" stroke="#00C2E0" stroke-width="1" opacity="0.45"/>
<circle cx="40" cy="66" r="14" fill="#00C2E0" opacity="0.12"/><circle cx="40" cy="66" r="6" fill="none" stroke="#00C2E0" stroke-width="1.5" opacity="0.8"/><line x1="40" y1="60" x2="46" y2="54" stroke="#00C2E0" stroke-width="1.5" opacity="0.9"/>
<text x="62" y="62" font-size="14" font-weight="700" fill="#E8F5F2">Regional Investors</text>
<text x="62" y="78" font-size="10" fill="#7BB5A8">Launch agentic commerce in your region</text>
<text x="18" y="116" font-size="10" fill="#00C2E0" opacity="0.8">• No engineering  • Rapid ROI  • White-label</text>
<!-- Card 2: Telecom -->
<rect x="346" y="32" width="326" height="140" rx="10" fill="#1a2f3a" opacity="0.9"/>
<rect x="346" y="32" width="326" height="140" rx="10" fill="none" stroke="url(#gr)" stroke-width="1" opacity="0.45"/>
<circle cx="378" cy="66" r="14" fill="#00C2E0" opacity="0.1"/>
<circle cx="378" cy="71" r="3" fill="#00C2E0" opacity="0.85"/>
<path d="M370,64 A10,10 0 0 1 386,64" fill="none" stroke="#00C2E0" stroke-width="1.3" opacity="0.6" stroke-linecap="round"/>
<path d="M365,59 A16,16 0 0 1 391,59" fill="none" stroke="#4ADE5C" stroke-width="1" opacity="0.35" stroke-linecap="round"/>
<text x="400" y="62" font-size="13" font-weight="700" fill="#E8F5F2">Telecom, Super Apps &amp; Platforms</text>
<text x="400" y="78" font-size="10" fill="#7BB5A8">Turn your user base into new revenue</text>
<text x="356" y="116" font-size="10" fill="#4ADE5C" opacity="0.8">• Fast deploy  • Localized  • Scalable</text>
<!-- Card 3: Marketplaces -->
<rect x="8" y="184" width="326" height="140" rx="10" fill="#1a2f3a" opacity="0.9"/>
<rect x="8" y="184" width="326" height="140" rx="10" fill="none" stroke="url(#gr)" stroke-width="1" opacity="0.45"/>
<circle cx="40" cy="218" r="14" fill="#4ADE5C" opacity="0.08"/>
<line x1="30" y1="214" x2="40" y2="214" stroke="#4ADE5C" stroke-width="1.5" opacity="0.8"/><polygon points="40,214 36,210 36,218" fill="#4ADE5C" opacity="0.8"/>
<line x1="50" y1="222" x2="40" y2="222" stroke="#00C2E0" stroke-width="1.5" opacity="0.8"/><polygon points="40,222 44,218 44,226" fill="#00C2E0" opacity="0.8"/>
<text x="62" y="214" font-size="14" font-weight="700" fill="#E8F5F2">Marketplaces &amp; E-commerce</text>
<text x="62" y="230" font-size="10" fill="#7BB5A8">Increase conversion from high-intent demand</text>
<text x="18" y="268" font-size="10" fill="#4ADE5C" opacity="0.8">• Customizable  • AI-to-AI  • Any vertical</text>
<!-- Card 4: Enterprise -->
<rect x="346" y="184" width="326" height="140" rx="10" fill="#1a2f3a" opacity="0.9"/>
<rect x="346" y="184" width="326" height="140" rx="10" fill="none" stroke="#4ADE5C" stroke-width="1" opacity="0.45"/>
<circle cx="378" cy="218" r="14" fill="#4ADE5C" opacity="0.12"/>
<rect x="369" y="209" width="18" height="18" rx="2" fill="#4ADE5C" opacity="0.7"/>
<rect x="372" y="212" width="4" height="3" rx="0.5" fill="#141C22" opacity="0.7"/><rect x="379" y="212" width="4" height="3" rx="0.5" fill="#141C22" opacity="0.7"/>
<rect x="372" y="218" width="4" height="3" rx="0.5" fill="#141C22" opacity="0.7"/><rect x="379" y="218" width="4" height="3" rx="0.5" fill="#141C22" opacity="0.7"/>
<text x="400" y="214" font-size="14" font-weight="700" fill="#E8F5F2">Enterprises &amp; Government</text>
<text x="400" y="230" font-size="10" fill="#7BB5A8">Automate workflows with full control</text>
<text x="356" y="268" font-size="10" fill="#4ADE5C" opacity="0.8">• Secure  • Compliant  • Enterprise-ready</text>
<rect x="0" y="352" width="680" height="8" fill="url(#gr)" opacity="0.45"/>
</svg>
