<svg width="680" height="320" viewBox="0 0 680 320" xmlns="http://www.w3.org/2000/svg" font-family="'Helvetica Neue', Arial, sans-serif">
<defs>
  <linearGradient id="gr" x1="0%" y1="0%" x2="100%" y2="0%"><stop offset="0%" stop-color="#00C2E0"/><stop offset="100%" stop-color="#4ADE5C"/></linearGradient>
</defs>
<rect width="680" height="320" fill="#141C22"/>
<text x="340" y="24" text-anchor="middle" font-size="10" font-weight="700" letter-spacing="4" fill="url(#gr)" opacity="0.8">BUILT FOR</text>
<rect x="8" y="32" width="664" height="280" rx="12" fill="#1a2530" opacity="0.5"/>
<rect x="8" y="32" width="664" height="280" rx="12" fill="none" stroke="#00C2E0" stroke-width="0.8" opacity="0.2"/>
<!-- Row 1: Regional Investors — stacked coins -->
<rect x="14" y="44" width="4" height="60" rx="2" fill="#00C2E0" opacity="0.85"/>
<circle cx="46" cy="74" r="13" fill="#00C2E0" opacity="0.1"/>
<ellipse cx="46" cy="65" rx="12" ry="3.5" fill="#00C2E0" opacity="0.18" stroke="#00C2E0" stroke-width="1.5" opacity="0.5"/>
<line x1="34" y1="65" x2="34" y2="74" stroke="#00C2E0" stroke-width="1.5" opacity="0.4"/>
<line x1="58" y1="65" x2="58" y2="74" stroke="#00C2E0" stroke-width="1.5" opacity="0.4"/>
<ellipse cx="46" cy="74" rx="12" ry="3.5" fill="#00C2E0" opacity="0.22" stroke="#00C2E0" stroke-width="1.5" opacity="0.65"/>
<line x1="34" y1="74" x2="34" y2="83" stroke="#00C2E0" stroke-width="1.5" opacity="0.55"/>
<line x1="58" y1="74" x2="58" y2="83" stroke="#00C2E0" stroke-width="1.5" opacity="0.55"/>
<ellipse cx="46" cy="83" rx="12" ry="3.5" fill="#00C2E0" opacity="0.3" stroke="#00C2E0" stroke-width="2" opacity="0.9"/>
<text x="70" y="67" font-size="14" font-weight="700" fill="#E8F5F2">Regional Investors</text>
<text x="70" y="84" font-size="10" fill="#7BB5A8">Launch agentic commerce in your region</text>
<line x1="446" y1="48" x2="446" y2="100" stroke="#E8F5F2" stroke-width="0.5" opacity="0.1"/>
<text x="460" y="67" font-size="10" fill="#E8F5F2" opacity="0.65">No engineering</text>
<text x="460" y="84" font-size="10" fill="#7BB5A8" opacity="0.6">Rapid ROI  ·  White-label</text>
<!-- Row 2: Telecom — thicker arcs -->
<rect x="14" y="112" width="4" height="60" rx="2" fill="url(#gr)" opacity="0.85"/>
<circle cx="46" cy="142" r="13" fill="#00C2E0" opacity="0.08"/>
<circle cx="46" cy="147" r="4" fill="#00C2E0" opacity="0.9"/>
<path d="M36,139 A12,12 0 0 1 56,139" fill="none" stroke="#00C2E0" stroke-width="2.2" opacity="0.85" stroke-linecap="round"/>
<path d="M29,132 A20,20 0 0 1 63,132" fill="none" stroke="#4ADE5C" stroke-width="1.8" opacity="0.6" stroke-linecap="round"/>
<text x="70" y="135" font-size="13" font-weight="700" fill="#E8F5F2">Telecom, Super Apps &amp; Platforms</text>
<text x="70" y="152" font-size="10" fill="#7BB5A8">Turn your user base into new revenue streams</text>
<line x1="446" y1="116" x2="446" y2="168" stroke="#E8F5F2" stroke-width="0.5" opacity="0.1"/>
<text x="460" y="135" font-size="10" fill="#E8F5F2" opacity="0.65">Fast deploy</text>
<text x="460" y="152" font-size="10" fill="#7BB5A8" opacity="0.6">Localized  ·  Scalable</text>
<!-- Row 3: Marketplaces -->
<rect x="14" y="180" width="4" height="60" rx="2" fill="url(#gr)" opacity="0.85"/>
<circle cx="46" cy="210" r="13" fill="#4ADE5C" opacity="0.07"/>
<line x1="33" y1="204" x2="47" y2="204" stroke="#4ADE5C" stroke-width="2" opacity="0.88" stroke-linecap="round"/><polygon points="47,204 41,200 41,208" fill="#4ADE5C" opacity="0.88"/>
<line x1="59" y1="216" x2="45" y2="216" stroke="#00C2E0" stroke-width="2" opacity="0.88" stroke-linecap="round"/><polygon points="45,216 51,212 51,220" fill="#00C2E0" opacity="0.88"/>
<text x="70" y="203" font-size="14" font-weight="700" fill="#E8F5F2">Marketplaces &amp; E-commerce</text>
<text x="70" y="220" font-size="10" fill="#7BB5A8">Increase conversion from high-intent demand</text>
<line x1="446" y1="184" x2="446" y2="236" stroke="#E8F5F2" stroke-width="0.5" opacity="0.1"/>
<text x="460" y="203" font-size="10" fill="#E8F5F2" opacity="0.65">Customizable</text>
<text x="460" y="220" font-size="10" fill="#7BB5A8" opacity="0.6">AI-to-AI  ·  Any vertical</text>
<!-- Row 4: Enterprise -->
<rect x="14" y="248" width="4" height="60" rx="2" fill="#4ADE5C" opacity="0.85"/>
<circle cx="46" cy="278" r="13" fill="#4ADE5C" opacity="0.09"/>
<rect x="35" y="264" width="22" height="26" rx="2" fill="#4ADE5C" opacity="0.78"/>
<rect x="38" y="268" width="5" height="5" rx="0.8" fill="#141C22" opacity="0.78"/>
<rect x="46" y="268" width="5" height="5" rx="0.8" fill="#141C22" opacity="0.78"/>
<rect x="38" y="276" width="5" height="5" rx="0.8" fill="#141C22" opacity="0.78"/>
<rect x="46" y="276" width="5" height="5" rx="0.8" fill="#141C22" opacity="0.78"/>
<rect x="35" y="285" width="22" height="5" rx="1" fill="#141C22" opacity="0.18"/>
<text x="70" y="271" font-size="14" font-weight="700" fill="#E8F5F2">Enterprises &amp; Government</text>
<text x="70" y="288" font-size="10" fill="#7BB5A8">Automate workflows with full control</text>
<line x1="446" y1="252" x2="446" y2="304" stroke="#E8F5F2" stroke-width="0.5" opacity="0.1"/>
<text x="460" y="271" font-size="10" fill="#E8F5F2" opacity="0.65">Secure</text>
<text x="460" y="288" font-size="10" fill="#7BB5A8" opacity="0.6">Compliant  ·  Enterprise-ready</text>
<rect x="0" y="312" width="680" height="8" fill="url(#gr)" opacity="0.45"/>
</svg>
