<svg width="680" height="272" viewBox="0 0 680 272" xmlns="http://www.w3.org/2000/svg" font-family="'Helvetica Neue', Arial, sans-serif">
<defs>
  <linearGradient id="gr" x1="0%" y1="0%" x2="100%" y2="0%"><stop offset="0%" stop-color="#00C2E0"/><stop offset="100%" stop-color="#4ADE5C"/></linearGradient>
</defs>
<rect width="680" height="272" fill="#141C22"/>
<text x="340" y="22" text-anchor="middle" font-size="10" font-weight="700" letter-spacing="4" fill="url(#gr)" opacity="0.8">BUILT FOR</text>
<rect x="8" y="30" width="664" height="234" rx="10" fill="#1a2530" opacity="0.5"/>
<rect x="8" y="30" width="664" height="234" rx="10" fill="none" stroke="#00C2E0" stroke-width="0.8" opacity="0.2"/>
<!-- Row 1 -->
<rect x="14" y="36" width="652" height="54" rx="6" fill="#00C2E0" opacity="0.05"/>
<circle cx="44" cy="63" r="14" fill="#00C2E0" opacity="0.12"/><circle cx="44" cy="63" r="6" fill="none" stroke="#00C2E0" stroke-width="1.5" opacity="0.8"/><line x1="44" y1="57" x2="50" y2="51" stroke="#00C2E0" stroke-width="1.5" opacity="0.9"/>
<text x="68" y="59" font-size="13" font-weight="700" fill="#E8F5F2">Regional Investors</text>
<text x="68" y="74" font-size="10" fill="#7BB5A8" opacity="0.8">Launch agentic commerce in your region</text>
<rect x="296" y="50" width="90" height="18" rx="9" fill="#00C2E0" opacity="0.12"/><text x="341" y="62" text-anchor="middle" font-size="9" fill="#00C2E0" opacity="0.9">No engineering</text>
<rect x="394" y="50" width="80" height="18" rx="9" fill="#00C2E0" opacity="0.12"/><text x="434" y="62" text-anchor="middle" font-size="9" fill="#00C2E0" opacity="0.9">Rapid ROI</text>
<rect x="482" y="50" width="82" height="18" rx="9" fill="#00C2E0" opacity="0.12"/><text x="523" y="62" text-anchor="middle" font-size="9" fill="#00C2E0" opacity="0.9">White-label</text>
<!-- Row 2 -->
<rect x="14" y="92" width="652" height="54" rx="6" fill="#00C2E0" opacity="0.03"/>
<circle cx="44" cy="119" r="14" fill="#00C2E0" opacity="0.08"/>
<circle cx="44" cy="123" r="3" fill="#00C2E0" opacity="0.85"/>
<path d="M36,116 A10,10 0 0 1 52,116" fill="none" stroke="#00C2E0" stroke-width="1.3" opacity="0.6" stroke-linecap="round"/>
<path d="M31,111 A16,16 0 0 1 57,111" fill="none" stroke="#4ADE5C" stroke-width="1" opacity="0.4" stroke-linecap="round"/>
<text x="68" y="115" font-size="13" font-weight="700" fill="#E8F5F2">Telecom, Super Apps &amp; Platforms</text>
<text x="68" y="130" font-size="10" fill="#7BB5A8" opacity="0.8">Turn your user base into new revenue streams</text>
<rect x="358" y="106" width="74" height="18" rx="9" fill="#4ADE5C" opacity="0.1"/><text x="395" y="118" text-anchor="middle" font-size="9" fill="#4ADE5C" opacity="0.9">Fast deploy</text>
<rect x="440" y="106" width="64" height="18" rx="9" fill="#4ADE5C" opacity="0.1"/><text x="472" y="118" text-anchor="middle" font-size="9" fill="#4ADE5C" opacity="0.9">Localized</text>
<rect x="512" y="106" width="60" height="18" rx="9" fill="#4ADE5C" opacity="0.1"/><text x="542" y="118" text-anchor="middle" font-size="9" fill="#4ADE5C" opacity="0.9">Scalable</text>
<!-- Row 3 -->
<rect x="14" y="148" width="652" height="54" rx="6" fill="#4ADE5C" opacity="0.03"/>
<circle cx="44" cy="175" r="14" fill="#4ADE5C" opacity="0.08"/>
<line x1="32" y1="171" x2="44" y2="171" stroke="#4ADE5C" stroke-width="1.5" opacity="0.8"/><polygon points="44,171 40,167 40,175" fill="#4ADE5C" opacity="0.8"/>
<line x1="56" y1="179" x2="44" y2="179" stroke="#00C2E0" stroke-width="1.5" opacity="0.8"/><polygon points="44,179 48,175 48,183" fill="#00C2E0" opacity="0.8"/>
<text x="68" y="171" font-size="13" font-weight="700" fill="#E8F5F2">Marketplaces &amp; E-commerce</text>
<text x="68" y="186" font-size="10" fill="#7BB5A8" opacity="0.8">Increase conversion from high-intent demand</text>
<rect x="336" y="162" width="84" height="18" rx="9" fill="#4ADE5C" opacity="0.1"/><text x="378" y="174" text-anchor="middle" font-size="9" fill="#4ADE5C" opacity="0.9">Customizable</text>
<rect x="428" y="162" width="68" height="18" rx="9" fill="#4ADE5C" opacity="0.1"/><text x="462" y="174" text-anchor="middle" font-size="9" fill="#4ADE5C" opacity="0.9">AI-to-AI</text>
<rect x="504" y="162" width="78" height="18" rx="9" fill="#4ADE5C" opacity="0.1"/><text x="543" y="174" text-anchor="middle" font-size="9" fill="#4ADE5C" opacity="0.9">Any vertical</text>
<!-- Row 4 -->
<rect x="14" y="204" width="652" height="54" rx="6" fill="#4ADE5C" opacity="0.05"/>
<circle cx="44" cy="231" r="14" fill="#4ADE5C" opacity="0.12"/>
<rect x="35" y="222" width="18" height="18" rx="2" fill="#4ADE5C" opacity="0.7"/>
<rect x="38" y="225" width="4" height="3" rx="0.5" fill="#141C22" opacity="0.7"/><rect x="45" y="225" width="4" height="3" rx="0.5" fill="#141C22" opacity="0.7"/>
<rect x="38" y="231" width="4" height="3" rx="0.5" fill="#141C22" opacity="0.7"/><rect x="45" y="231" width="4" height="3" rx="0.5" fill="#141C22" opacity="0.7"/>
<text x="68" y="227" font-size="13" font-weight="700" fill="#E8F5F2">Enterprises &amp; Government</text>
<text x="68" y="242" font-size="10" fill="#7BB5A8" opacity="0.8">Automate workflows with full control</text>
<rect x="322" y="218" width="60" height="18" rx="9" fill="#4ADE5C" opacity="0.12"/><text x="352" y="230" text-anchor="middle" font-size="9" fill="#4ADE5C" opacity="0.95">Secure</text>
<rect x="390" y="218" width="72" height="18" rx="9" fill="#4ADE5C" opacity="0.12"/><text x="426" y="230" text-anchor="middle" font-size="9" fill="#4ADE5C" opacity="0.95">Compliant</text>
<rect x="470" y="218" width="100" height="18" rx="9" fill="#4ADE5C" opacity="0.12"/><text x="520" y="230" text-anchor="middle" font-size="9" fill="#4ADE5C" opacity="0.95">Enterprise-ready</text>
<rect x="0" y="264" width="680" height="8" fill="url(#gr)" opacity="0.45"/>
</svg>
