<svg width="680" height="320" viewBox="0 0 680 320" xmlns="http://www.w3.org/2000/svg" font-family="'Helvetica Neue', Arial, sans-serif">
<defs>
  <linearGradient id="gr" x1="0%" y1="0%" x2="100%" y2="0%"><stop offset="0%" stop-color="#00C2E0"/><stop offset="100%" stop-color="#4ADE5C"/></linearGradient>
</defs>
<rect width="680" height="320" fill="#141C22"/>
<text x="340" y="24" text-anchor="middle" font-size="10" font-weight="700" letter-spacing="4" fill="url(#gr)" opacity="0.8">BUILT FOR</text>
<rect x="8" y="32" width="664" height="280" rx="12" fill="#1a2530" opacity="0.5"/>
<rect x="8" y="32" width="664" height="280" rx="12" fill="none" stroke="#00C2E0" stroke-width="0.8" opacity="0.2"/>
<!-- Row 1: Regional Investors -->
<rect x="14" y="44" width="4" height="60" rx="2" fill="#00C2E0" opacity="0.85"/>
<circle cx="46" cy="74" r="13" fill="#00C2E0" opacity="0.1"/>
<polyline points="36,82 40,76 45,71 51,66" fill="none" stroke="#00C2E0" stroke-width="1.8" stroke-linecap="round" stroke-linejoin="round" opacity="0.9"/>
<circle cx="36" cy="82" r="2" fill="#00C2E0" opacity="0.7"/>
<circle cx="45" cy="71" r="2" fill="#00C2E0" opacity="0.85"/>
<circle cx="51" cy="66" r="2.5" fill="#00C2E0" opacity="1"/>
<text x="70" y="67" font-size="14" font-weight="700" fill="#E8F5F2">Regional Investors</text>
<text x="70" y="84" font-size="10" fill="#7BB5A8">Launch agentic commerce in your region</text>
<line x1="446" y1="48" x2="446" y2="100" stroke="#E8F5F2" stroke-width="0.5" opacity="0.1"/>
<text x="460" y="67" font-size="10" fill="#E8F5F2" opacity="0.65">No engineering</text>
<text x="460" y="84" font-size="10" fill="#7BB5A8" opacity="0.6">Rapid ROI  ·  White-label</text>
<!-- Row 2: Telecom -->
<rect x="14" y="112" width="4" height="60" rx="2" fill="url(#gr)" opacity="0.85"/>
<circle cx="46" cy="142" r="13" fill="#00C2E0" opacity="0.08"/>
<circle cx="46" cy="146" r="3" fill="#00C2E0" opacity="0.85"/>
<path d="M38,139 A10,10 0 0 1 54,139" fill="none" stroke="#00C2E0" stroke-width="1.4" opacity="0.65" stroke-linecap="round"/>
<path d="M33,134 A16,16 0 0 1 59,134" fill="none" stroke="#4ADE5C" stroke-width="1.1" opacity="0.38" stroke-linecap="round"/>
<text x="70" y="135" font-size="13" font-weight="700" fill="#E8F5F2">Telecom, Super Apps &amp; Platforms</text>
<text x="70" y="152" font-size="10" fill="#7BB5A8">Turn your user base into new revenue streams</text>
<line x1="446" y1="116" x2="446" y2="168" stroke="#E8F5F2" stroke-width="0.5" opacity="0.1"/>
<text x="460" y="135" font-size="10" fill="#E8F5F2" opacity="0.65">Fast deploy</text>
<text x="460" y="152" font-size="10" fill="#7BB5A8" opacity="0.6">Localized  ·  Scalable</text>
<!-- Row 3: Marketplaces -->
<rect x="14" y="180" width="4" height="60" rx="2" fill="url(#gr)" opacity="0.85"/>
<circle cx="46" cy="210" r="13" fill="#4ADE5C" opacity="0.07"/>
<line x1="35" y1="205" x2="46" y2="205" stroke="#4ADE5C" stroke-width="1.7" opacity="0.85" stroke-linecap="round"/><polygon points="46,205 41,201 41,209" fill="#4ADE5C" opacity="0.85"/>
<line x1="57" y1="215" x2="46" y2="215" stroke="#00C2E0" stroke-width="1.7" opacity="0.85" stroke-linecap="round"/><polygon points="46,215 51,211 51,219" fill="#00C2E0" opacity="0.85"/>
<text x="70" y="203" font-size="14" font-weight="700" fill="#E8F5F2">Marketplaces &amp; E-commerce</text>
<text x="70" y="220" font-size="10" fill="#7BB5A8">Increase conversion from high-intent demand</text>
<line x1="446" y1="184" x2="446" y2="236" stroke="#E8F5F2" stroke-width="0.5" opacity="0.1"/>
<text x="460" y="203" font-size="10" fill="#E8F5F2" opacity="0.65">Customizable</text>
<text x="460" y="220" font-size="10" fill="#7BB5A8" opacity="0.6">AI-to-AI  ·  Any vertical</text>
<!-- Row 4: Enterprise -->
<rect x="14" y="248" width="4" height="60" rx="2" fill="#4ADE5C" opacity="0.85"/>
<circle cx="46" cy="278" r="13" fill="#4ADE5C" opacity="0.09"/>
<rect x="37" y="267" width="18" height="20" rx="2" fill="#4ADE5C" opacity="0.75"/>
<rect x="40" y="270" width="4" height="4" rx="0.8" fill="#141C22" opacity="0.75"/>
<rect x="47" y="270" width="4" height="4" rx="0.8" fill="#141C22" opacity="0.75"/>
<rect x="40" y="277" width="4" height="4" rx="0.8" fill="#141C22" opacity="0.75"/>
<rect x="47" y="277" width="4" height="4" rx="0.8" fill="#141C22" opacity="0.75"/>
<rect x="37" y="284" width="18" height="3" rx="1" fill="#141C22" opacity="0.2"/>
<text x="70" y="271" font-size="14" font-weight="700" fill="#E8F5F2">Enterprises &amp; Government</text>
<text x="70" y="288" font-size="10" fill="#7BB5A8">Automate workflows with full control</text>
<line x1="446" y1="252" x2="446" y2="304" stroke="#E8F5F2" stroke-width="0.5" opacity="0.1"/>
<text x="460" y="271" font-size="10" fill="#E8F5F2" opacity="0.65">Secure</text>
<text x="460" y="288" font-size="10" fill="#7BB5A8" opacity="0.6">Compliant  ·  Enterprise-ready</text>
<rect x="0" y="312" width="680" height="8" fill="url(#gr)" opacity="0.45"/>
</svg>
