<svg width="680" height="272" viewBox="0 0 680 272" xmlns="http://www.w3.org/2000/svg" font-family="'Helvetica Neue', Arial, sans-serif">
<defs>
  <linearGradient id="gr" x1="0%" y1="0%" x2="100%" y2="0%"><stop offset="0%" stop-color="#00C2E0"/><stop offset="100%" stop-color="#4ADE5C"/></linearGradient>
</defs>
<rect width="680" height="272" fill="#141C22"/>
<text x="340" y="22" text-anchor="middle" font-size="10" font-weight="700" letter-spacing="4" fill="url(#gr)" opacity="0.8">BUILT FOR</text>
<rect x="8" y="30" width="664" height="234" rx="10" fill="#1a2530" opacity="0.5"/>
<rect x="8" y="30" width="664" height="234" rx="10" fill="none" stroke="#00C2E0" stroke-width="0.8" opacity="0.2"/>
<!-- Row 1: Regional Investors -->
<rect x="12" y="36" width="4" height="54" rx="2" fill="#00C2E0" opacity="0.85"/>
<circle cx="38" cy="63" r="15" fill="#00C2E0" opacity="0.1"/>
<rect x="29" y="58" width="5" height="12" rx="1" fill="#00C2E0" opacity="0.6"/>
<rect x="36" y="53" width="5" height="17" rx="1" fill="#00C2E0" opacity="0.8"/>
<rect x="43" y="47" width="5" height="23" rx="1" fill="#00C2E0" opacity="0.95"/>
<text x="62" y="57" font-size="14" font-weight="700" fill="#E8F5F2">Regional Investors</text>
<text x="62" y="73" font-size="10" fill="#7BB5A8">Launch agentic commerce in your region</text>
<line x1="434" y1="40" x2="434" y2="86" stroke="#00C2E0" stroke-width="0.6" opacity="0.2"/>
<text x="446" y="57" font-size="10" fill="#00C2E0" opacity="0.85">No engineering</text>
<text x="446" y="73" font-size="10" fill="#00C2E0" opacity="0.6">Rapid ROI  ·  White-label</text>
<!-- Row 2: Telecom -->
<rect x="12" y="92" width="4" height="54" rx="2" fill="url(#gr)" opacity="0.85"/>
<circle cx="38" cy="119" r="15" fill="#00C2E0" opacity="0.08"/>
<circle cx="38" cy="123" r="3.5" fill="#00C2E0" opacity="0.85"/>
<path d="M29,115 A11,11 0 0 1 47,115" fill="none" stroke="#00C2E0" stroke-width="1.5" opacity="0.65" stroke-linecap="round"/>
<path d="M23,109 A18,18 0 0 1 53,109" fill="none" stroke="#4ADE5C" stroke-width="1.2" opacity="0.4" stroke-linecap="round"/>
<text x="62" y="113" font-size="13" font-weight="700" fill="#E8F5F2">Telecom, Super Apps &amp; Platforms</text>
<text x="62" y="129" font-size="10" fill="#7BB5A8">Turn your user base into new revenue streams</text>
<line x1="460" y1="96" x2="460" y2="142" stroke="#4ADE5C" stroke-width="0.6" opacity="0.2"/>
<text x="472" y="113" font-size="10" fill="#4ADE5C" opacity="0.85">Fast deploy</text>
<text x="472" y="129" font-size="10" fill="#4ADE5C" opacity="0.6">Localized  ·  Scalable</text>
<!-- Row 3: Marketplaces -->
<rect x="12" y="148" width="4" height="54" rx="2" fill="url(#gr)" opacity="0.85"/>
<circle cx="38" cy="175" r="15" fill="#4ADE5C" opacity="0.08"/>
<line x1="26" y1="170" x2="38" y2="170" stroke="#4ADE5C" stroke-width="1.8" opacity="0.85"/><polygon points="38,170 33,166 33,174" fill="#4ADE5C" opacity="0.85"/>
<line x1="50" y1="180" x2="38" y2="180" stroke="#00C2E0" stroke-width="1.8" opacity="0.85"/><polygon points="38,180 43,176 43,184" fill="#00C2E0" opacity="0.85"/>
<text x="62" y="169" font-size="14" font-weight="700" fill="#E8F5F2">Marketplaces &amp; E-commerce</text>
<text x="62" y="185" font-size="10" fill="#7BB5A8">Increase conversion from high-intent demand</text>
<line x1="434" y1="152" x2="434" y2="198" stroke="#4ADE5C" stroke-width="0.6" opacity="0.2"/>
<text x="446" y="169" font-size="10" fill="#4ADE5C" opacity="0.85">Customizable</text>
<text x="446" y="185" font-size="10" fill="#4ADE5C" opacity="0.6">AI-to-AI  ·  Any vertical</text>
<!-- Row 4: Enterprise -->
<rect x="12" y="204" width="4" height="54" rx="2" fill="#4ADE5C" opacity="0.85"/>
<circle cx="38" cy="231" r="15" fill="#4ADE5C" opacity="0.1"/>
<rect x="27" y="220" width="22" height="22" rx="2" fill="#4ADE5C" opacity="0.75"/>
<rect x="30" y="223" width="5" height="5" rx="0.8" fill="#141C22" opacity="0.75"/>
<rect x="38" y="223" width="5" height="5" rx="0.8" fill="#141C22" opacity="0.75"/>
<rect x="30" y="231" width="5" height="5" rx="0.8" fill="#141C22" opacity="0.75"/>
<rect x="38" y="231" width="5" height="5" rx="0.8" fill="#141C22" opacity="0.75"/>
<rect x="27" y="238" width="22" height="4" rx="1" fill="#141C22" opacity="0.2"/>
<text x="62" y="225" font-size="14" font-weight="700" fill="#E8F5F2">Enterprises &amp; Government</text>
<text x="62" y="241" font-size="10" fill="#7BB5A8">Automate workflows with full control</text>
<line x1="440" y1="208" x2="440" y2="254" stroke="#4ADE5C" stroke-width="0.6" opacity="0.2"/>
<text x="452" y="225" font-size="10" fill="#4ADE5C" opacity="0.85">Secure</text>
<text x="452" y="241" font-size="10" fill="#4ADE5C" opacity="0.6">Compliant  ·  Enterprise-ready</text>
<rect x="0" y="264" width="680" height="8" fill="url(#gr)" opacity="0.45"/>
</svg>
