<svg width="680" height="272" viewBox="0 0 680 272" xmlns="http://www.w3.org/2000/svg" font-family="'Helvetica Neue', Arial, sans-serif">
<defs>
  <linearGradient id="gr" x1="0%" y1="0%" x2="100%" y2="0%"><stop offset="0%" stop-color="#00C2E0"/><stop offset="100%" stop-color="#4ADE5C"/></linearGradient>
</defs>
<rect width="680" height="272" fill="#141C22"/>
<text x="340" y="22" text-anchor="middle" font-size="10" font-weight="700" letter-spacing="4" fill="url(#gr)" opacity="0.8">BUILT FOR</text>
<rect x="8" y="30" width="664" height="234" rx="10" fill="#1a2530" opacity="0.5"/>
<rect x="8" y="30" width="664" height="234" rx="10" fill="none" stroke="#4ADE5C" stroke-width="0.8" opacity="0.2"/>
<!-- Row 1 -->
<rect x="12" y="34" width="4" height="54" rx="2" fill="#00C2E0" opacity="0.8"/>
<text x="26" y="56" font-size="14" font-weight="700" fill="#E8F5F2">Regional Investors</text>
<text x="26" y="72" font-size="10" fill="#7BB5A8">Launch agentic commerce in your region</text>
<line x1="430" y1="38" x2="430" y2="84" stroke="#00C2E0" stroke-width="0.5" opacity="0.2"/>
<text x="442" y="56" font-size="10" fill="#00C2E0" opacity="0.85">No engineering</text>
<text x="442" y="72" font-size="10" fill="#00C2E0" opacity="0.6">Rapid ROI  ·  White-label</text>
<!-- Row 2 -->
<rect x="12" y="92" width="4" height="54" rx="2" fill="url(#gr)" opacity="0.8"/>
<text x="26" y="114" font-size="14" font-weight="700" fill="#E8F5F2">Telecom, Super Apps &amp; Platforms</text>
<text x="26" y="130" font-size="10" fill="#7BB5A8">Turn your user base into new revenue streams</text>
<line x1="458" y1="96" x2="458" y2="142" stroke="#4ADE5C" stroke-width="0.5" opacity="0.2"/>
<text x="470" y="114" font-size="10" fill="#4ADE5C" opacity="0.85">Fast deploy</text>
<text x="470" y="130" font-size="10" fill="#4ADE5C" opacity="0.6">Localized  ·  Scalable</text>
<!-- Row 3 -->
<rect x="12" y="150" width="4" height="54" rx="2" fill="url(#gr)" opacity="0.8"/>
<text x="26" y="172" font-size="14" font-weight="700" fill="#E8F5F2">Marketplaces &amp; E-commerce</text>
<text x="26" y="188" font-size="10" fill="#7BB5A8">Increase conversion from high-intent demand</text>
<line x1="430" y1="154" x2="430" y2="200" stroke="#4ADE5C" stroke-width="0.5" opacity="0.2"/>
<text x="442" y="172" font-size="10" fill="#4ADE5C" opacity="0.85">Customizable</text>
<text x="442" y="188" font-size="10" fill="#4ADE5C" opacity="0.6">AI-to-AI  ·  Any vertical</text>
<!-- Row 4 -->
<rect x="12" y="208" width="4" height="54" rx="2" fill="#4ADE5C" opacity="0.8"/>
<text x="26" y="230" font-size="14" font-weight="700" fill="#E8F5F2">Enterprises &amp; Government</text>
<text x="26" y="246" font-size="10" fill="#7BB5A8">Automate workflows with full control</text>
<line x1="440" y1="212" x2="440" y2="258" stroke="#4ADE5C" stroke-width="0.5" opacity="0.2"/>
<text x="452" y="230" font-size="10" fill="#4ADE5C" opacity="0.85">Secure</text>
<text x="452" y="246" font-size="10" fill="#4ADE5C" opacity="0.6">Compliant  ·  Enterprise-ready</text>
<rect x="0" y="264" width="680" height="8" fill="url(#gr)" opacity="0.45"/>
</svg>
