<svg width="1360" height="1020" viewBox="0 0 1360 1020" xmlns="http://www.w3.org/2000/svg" font-family="'Helvetica Neue', Arial, sans-serif">
<defs>
  <linearGradient id="gr" x1="0%" y1="0%" x2="100%" y2="0%">
    <stop offset="0%" stop-color="#00C2E0"/>
    <stop offset="100%" stop-color="#4ADE5C"/>
  </linearGradient>
</defs>
<rect width="1360" height="1020" fill="#141C22"/>
<text x="680" y="44" text-anchor="middle" font-size="11" font-weight="700" letter-spacing="5" fill="url(#gr)" opacity="0.8">MEET THE TEAM</text>

<!-- ROW 1 -->
<!-- Card 1: Andrew -->
<rect x="74" y="64" width="380" height="278" rx="12" fill="#1a2530"/>
<rect x="74" y="64" width="380" height="278" rx="12" fill="none" stroke="#00C2E0" stroke-width="1" stroke-opacity="0.35"/>
<circle cx="264" cy="148" r="46" fill="#00C2E0" fill-opacity="0.1"/>
<circle cx="264" cy="148" r="46" fill="none" stroke="#00C2E0" stroke-width="1.5" stroke-opacity="0.5"/>
<circle cx="264" cy="137" r="17" fill="#00C2E0" fill-opacity="0.7"/>
<path d="M238,192 Q238,172 264,167 Q290,172 290,192" fill="#00C2E0" fill-opacity="0.45"/>
<text x="264" y="222" text-anchor="middle" font-size="17" font-weight="700" fill="#E8F5F2">Andrew K.</text>
<text x="264" y="244" text-anchor="middle" font-size="11" fill="#00C2E0" fill-opacity="0.85" letter-spacing="2">CEO &amp; CO-FOUNDER</text>
<text x="264" y="272" text-anchor="middle" font-size="11" fill="#7BB5A8" fill-opacity="0.8" font-style="italic">"Build what the world needs next."</text>
<rect x="86" y="334" width="356" height="3" rx="1.5" fill="#00C2E0" fill-opacity="0.5"/>

<!-- Card 2: Pei-Wei -->
<rect x="490" y="64" width="380" height="278" rx="12" fill="#1a2530"/>
<rect x="490" y="64" width="380" height="278" rx="12" fill="none" stroke="#19CBB4" stroke-width="1" stroke-opacity="0.35"/>
<circle cx="680" cy="148" r="46" fill="#19CBB4" fill-opacity="0.1"/>
<circle cx="680" cy="148" r="46" fill="none" stroke="#19CBB4" stroke-width="1.5" stroke-opacity="0.5"/>
<circle cx="680" cy="137" r="17" fill="#19CBB4" fill-opacity="0.7"/>
<path d="M654,192 Q654,172 680,167 Q706,172 706,192" fill="#19CBB4" fill-opacity="0.45"/>
<text x="680" y="222" text-anchor="middle" font-size="17" font-weight="700" fill="#E8F5F2">Pei-Wei T.</text>
<text x="680" y="244" text-anchor="middle" font-size="11" fill="#19CBB4" fill-opacity="0.85" letter-spacing="2">CTO &amp; CO-FOUNDER</text>
<text x="680" y="272" text-anchor="middle" font-size="11" fill="#7BB5A8" fill-opacity="0.8" font-style="italic">"Elegant systems solve hard problems."</text>
<rect x="502" y="334" width="356" height="3" rx="1.5" fill="#19CBB4" fill-opacity="0.5"/>

<!-- Card 3: Natalia -->
<rect x="906" y="64" width="380" height="278" rx="12" fill="#1a2530"/>
<rect x="906" y="64" width="380" height="278" rx="12" fill="none" stroke="#4ADE5C" stroke-width="1" stroke-opacity="0.35"/>
<circle cx="1096" cy="148" r="46" fill="#4ADE5C" fill-opacity="0.1"/>
<circle cx="1096" cy="148" r="46" fill="none" stroke="#4ADE5C" stroke-width="1.5" stroke-opacity="0.5"/>
<circle cx="1096" cy="137" r="17" fill="#4ADE5C" fill-opacity="0.7"/>
<path d="M1070,192 Q1070,172 1096,167 Q1122,172 1122,192" fill="#4ADE5C" fill-opacity="0.45"/>
<text x="1096" y="222" text-anchor="middle" font-size="17" font-weight="700" fill="#E8F5F2">Natalia S.</text>
<text x="1096" y="244" text-anchor="middle" font-size="11" fill="#4ADE5C" fill-opacity="0.85" letter-spacing="2">OPERATIONS LEAD</text>
<text x="1096" y="272" text-anchor="middle" font-size="11" fill="#7BB5A8" fill-opacity="0.8" font-style="italic">"The details make the difference."</text>
<rect x="918" y="334" width="356" height="3" rx="1.5" fill="#4ADE5C" fill-opacity="0.5"/>

<!-- ROW 2 -->
<!-- Card 4: Alex -->
<rect x="74" y="370" width="380" height="278" rx="12" fill="#1a2530"/>
<rect x="74" y="370" width="380" height="278" rx="12" fill="none" stroke="#00C2E0" stroke-width="1" stroke-opacity="0.35"/>
<circle cx="264" cy="454" r="46" fill="#00C2E0" fill-opacity="0.1"/>
<circle cx="264" cy="454" r="46" fill="none" stroke="#00C2E0" stroke-width="1.5" stroke-opacity="0.5"/>
<circle cx="264" cy="443" r="17" fill="#00C2E0" fill-opacity="0.7"/>
<path d="M238,498 Q238,478 264,473 Q290,478 290,498" fill="#00C2E0" fill-opacity="0.45"/>
<text x="264" y="528" text-anchor="middle" font-size="17" font-weight="700" fill="#E8F5F2">Alex M.</text>
<text x="264" y="550" text-anchor="middle" font-size="11" fill="#00C2E0" fill-opacity="0.85" letter-spacing="2">UX DESIGNER</text>
<text x="264" y="578" text-anchor="middle" font-size="11" fill="#7BB5A8" fill-opacity="0.8" font-style="italic">"Design is how it works."</text>
<rect x="86" y="640" width="356" height="3" rx="1.5" fill="#00C2E0" fill-opacity="0.5"/>

<!-- Card 5: Placeholder -->
<rect x="490" y="370" width="380" height="278" rx="12" fill="#1a2530"/>
<rect x="490" y="370" width="380" height="278" rx="12" fill="none" stroke="#19CBB4" stroke-width="1" stroke-opacity="0.35"/>
<circle cx="680" cy="454" r="46" fill="#19CBB4" fill-opacity="0.1"/>
<circle cx="680" cy="454" r="46" fill="none" stroke="#19CBB4" stroke-width="1.5" stroke-opacity="0.5"/>
<circle cx="680" cy="443" r="17" fill="#19CBB4" fill-opacity="0.7"/>
<path d="M654,498 Q654,478 680,473 Q706,478 706,498" fill="#19CBB4" fill-opacity="0.45"/>
<text x="680" y="528" text-anchor="middle" font-size="17" font-weight="700" fill="#E8F5F2">Team Member</text>
<text x="680" y="550" text-anchor="middle" font-size="11" fill="#19CBB4" fill-opacity="0.85" letter-spacing="2">POSITION</text>
<text x="680" y="578" text-anchor="middle" font-size="11" fill="#7BB5A8" fill-opacity="0.6" font-style="italic">"Favourite quote here."</text>
<rect x="502" y="640" width="356" height="3" rx="1.5" fill="#19CBB4" fill-opacity="0.5"/>

<!-- Card 6: Placeholder -->
<rect x="906" y="370" width="380" height="278" rx="12" fill="#1a2530"/>
<rect x="906" y="370" width="380" height="278" rx="12" fill="none" stroke="#4ADE5C" stroke-width="1" stroke-opacity="0.35"/>
<circle cx="1096" cy="454" r="46" fill="#4ADE5C" fill-opacity="0.1"/>
<circle cx="1096" cy="454" r="46" fill="none" stroke="#4ADE5C" stroke-width="1.5" stroke-opacity="0.5"/>
<circle cx="1096" cy="443" r="17" fill="#4ADE5C" fill-opacity="0.7"/>
<path d="M1070,498 Q1070,478 1096,473 Q1122,478 1122,498" fill="#4ADE5C" fill-opacity="0.45"/>
<text x="1096" y="528" text-anchor="middle" font-size="17" font-weight="700" fill="#E8F5F2">Team Member</text>
<text x="1096" y="550" text-anchor="middle" font-size="11" fill="#4ADE5C" fill-opacity="0.85" letter-spacing="2">POSITION</text>
<text x="1096" y="578" text-anchor="middle" font-size="11" fill="#7BB5A8" fill-opacity="0.6" font-style="italic">"Favourite quote here."</text>
<rect x="918" y="640" width="356" height="3" rx="1.5" fill="#4ADE5C" fill-opacity="0.5"/>

<!-- ROW 3 -->
<!-- Card 7: Placeholder -->
<rect x="74" y="676" width="380" height="278" rx="12" fill="#1a2530"/>
<rect x="74" y="676" width="380" height="278" rx="12" fill="none" stroke="#00C2E0" stroke-width="1" stroke-opacity="0.35"/>
<circle cx="264" cy="760" r="46" fill="#00C2E0" fill-opacity="0.1"/>
<circle cx="264" cy="760" r="46" fill="none" stroke="#00C2E0" stroke-width="1.5" stroke-opacity="0.5"/>
<circle cx="264" cy="749" r="17" fill="#00C2E0" fill-opacity="0.7"/>
<path d="M238,804 Q238,784 264,779 Q290,784 290,804" fill="#00C2E0" fill-opacity="0.45"/>
<text x="264" y="834" text-anchor="middle" font-size="17" font-weight="700" fill="#E8F5F2">Team Member</text>
<text x="264" y="856" text-anchor="middle" font-size="11" fill="#00C2E0" fill-opacity="0.85" letter-spacing="2">POSITION</text>
<text x="264" y="884" text-anchor="middle" font-size="11" fill="#7BB5A8" fill-opacity="0.6" font-style="italic">"Favourite quote here."</text>
<rect x="86" y="946" width="356" height="3" rx="1.5" fill="#00C2E0" fill-opacity="0.5"/>

<!-- Card 8: Placeholder -->
<rect x="490" y="676" width="380" height="278" rx="12" fill="#1a2530"/>
<rect x="490" y="676" width="380" height="278" rx="12" fill="none" stroke="#19CBB4" stroke-width="1" stroke-opacity="0.35"/>
<circle cx="680" cy="760" r="46" fill="#19CBB4" fill-opacity="0.1"/>
<circle cx="680" cy="760" r="46" fill="none" stroke="#19CBB4" stroke-width="1.5" stroke-opacity="0.5"/>
<circle cx="680" cy="749" r="17" fill="#19CBB4" fill-opacity="0.7"/>
<path d="M654,804 Q654,784 680,779 Q706,784 706,804" fill="#19CBB4" fill-opacity="0.45"/>
<text x="680" y="834" text-anchor="middle" font-size="17" font-weight="700" fill="#E8F5F2">Team Member</text>
<text x="680" y="856" text-anchor="middle" font-size="11" fill="#19CBB4" fill-opacity="0.85" letter-spacing="2">POSITION</text>
<text x="680" y="884" text-anchor="middle" font-size="11" fill="#7BB5A8" fill-opacity="0.6" font-style="italic">"Favourite quote here."</text>
<rect x="502" y="946" width="356" height="3" rx="1.5" fill="#19CBB4" fill-opacity="0.5"/>

<!-- Card 9: Add Member -->
<rect x="906" y="676" width="380" height="278" rx="12" fill="#1a2530"/>
<rect x="906" y="676" width="380" height="278" rx="12" fill="none" stroke="#4ADE5C" stroke-width="1" stroke-opacity="0.15" stroke-dasharray="6,4"/>
<circle cx="1096" cy="760" r="46" fill="#4ADE5C" fill-opacity="0.05"/>
<circle cx="1096" cy="760" r="46" fill="none" stroke="#4ADE5C" stroke-width="1.5" stroke-opacity="0.2"/>
<text x="1096" y="769" text-anchor="middle" font-size="32" fill="#4ADE5C" fill-opacity="0.3">＋</text>
<text x="1096" y="834" text-anchor="middle" font-size="15" font-weight="700" fill="#E8F5F2" fill-opacity="0.2">Add Team Member</text>

<!-- Bottom bar -->
<rect x="0" y="1014" width="1360" height="6" fill="url(#gr)" opacity="0.4"/>
</svg>
