<svg width="495" height="495" viewBox="0 0 495 495" xmlns="http://www.w3.org/2000/svg">
<defs>
  <linearGradient id="gr" x1="0" y1="0" x2="495" y2="495" gradientUnits="userSpaceOnUse">
    <stop offset="0%" stop-color="#00C2E0"/>
    <stop offset="100%" stop-color="#4ADE5C"/>
  </linearGradient>
</defs>
<rect width="495" height="495" fill="#141C22"/>
<rect x="88" y="88" width="10" height="10" rx="2" fill="url(#gr)"/>
<rect x="99" y="88" width="10" height="10" rx="2" fill="url(#gr)"/>
<rect x="110" y="88" width="10" height="10" rx="2" fill="url(#gr)"/>
<rect x="121" y="88" width="10" height="10" rx="2" fill="url(#gr)"/>
<rect x="132" y="88" width="10" height="10" rx="2" fill="url(#gr)"/>
<rect x="143" y="88" width="10" height="10" rx="2" fill="url(#gr)"/>
<rect x="154" y="88" width="10" height="10" rx="2" fill="url(#gr)"/>
<rect x="176" y="88" width="10" height="10" rx="2" fill="url(#gr)"/>
<rect x="187" y="88" width="10" height="10" rx="2" fill="url(#gr)"/>
<rect x="231" y="88" width="10" height="10" rx="2" fill="url(#gr)"/>
<rect x="242" y="88" width="10" height="10" rx="2" fill="url(#gr)"/>
<rect x="264" y="88" width="10" height="10" rx="2" fill="url(#gr)"/>
<rect x="330" y="88" width="10" height="10" rx="2" fill="url(#gr)"/>
<rect x="341" y="88" width="10" height="10" rx="2" fill="url(#gr)"/>
<rect x="352" y="88" width="10" height="10" rx="2" fill="url(#gr)"/>
<rect x="363" y="88" width="10" height="10" rx="2" fill="url(#gr)"/>
<rect x="374" y="88" width="10" height="10" rx="2" fill="url(#gr)"/>
<rect x="385" y="88" width="10" height="10" rx="2" fill="url(#gr)"/>
<rect x="396" y="88" width="10" height="10" rx="2" fill="url(#gr)"/>
<rect x="88" y="99" width="10" height="10" rx="2" fill="url(#gr)"/>
<rect x="154" y="99" width="10" height="10" rx="2" fill="url(#gr)"/>
<rect x="198" y="99" width="10" height="10" rx="2" fill="url(#gr)"/>
<rect x="209" y="99" width="10" height="10" rx="2" fill="url(#gr)"/>
<rect x="220" y="99" width="10" height="10" rx="2" fill="url(#gr)"/>
<rect x="231" y="99" width="10" height="10" rx="2" fill="url(#gr)"/>
<rect x="242" y="99" width="10" height="10" rx="2" fill="url(#gr)"/>
<rect x="253" y="99" width="10" height="10" rx="2" fill="url(#gr)"/>
<rect x="297" y="99" width="10" height="10" rx="2" fill="url(#gr)"/>
<rect x="308" y="99" width="10" height="10" rx="2" fill="url(#gr)"/>
<rect x="330" y="99" width="10" height="10" rx="2" fill="url(#gr)"/>
<rect x="396" y="99" width="10" height="10" rx="2" fill="url(#gr)"/>
<rect x="88" y="110" width="10" height="10" rx="2" fill="url(#gr)"/>
<rect x="110" y="110" width="10" height="10" rx="2" fill="url(#gr)"/>
<rect x="121" y="110" width="10" height="10" rx="2" fill="url(#gr)"/>
<rect x="132" y="110" width="10" height="10" rx="2" fill="url(#gr)"/>
<rect x="154" y="110" width="10" height="10" rx="2" fill="url(#gr)"/>
<rect x="187" y="110" width="10" height="10" rx="2" fill="url(#gr)"/>
<rect x="198" y="110" width="10" height="10" rx="2" fill="url(#gr)"/>
<rect x="209" y="110" width="10" height="10" rx="2" fill="url(#gr)"/>
<rect x="242" y="110" width="10" height="10" rx="2" fill="url(#gr)"/>
<rect x="275" y="110" width="10" height="10" rx="2" fill="url(#gr)"/>
<rect x="286" y="110" width="10" height="10" rx="2" fill="url(#gr)"/>
<rect x="308" y="110" width="10" height="10" rx="2" fill="url(#gr)"/>
<rect x="330" y="110" width="10" height="10" rx="2" fill="url(#gr)"/>
<rect x="352" y="110" width="10" height="10" rx="2" fill="url(#gr)"/>
<rect x="363" y="110" width="10" height="10" rx="2" fill="url(#gr)"/>
<rect x="374" y="110" width="10" height="10" rx="2" fill="url(#gr)"/>
<rect x="396" y="110" width="10" height="10" rx="2" fill="url(#gr)"/>
<rect x="88" y="121" width="10" height="10" rx="2" fill="url(#gr)"/>
<rect x="110" y="121" width="10" height="10" rx="2" fill="url(#gr)"/>
<rect x="121" y="121" width="10" height="10" rx="2" fill="url(#gr)"/>
<rect x="132" y="121" width="10" height="10" rx="2" fill="url(#gr)"/>
<rect x="154" y="121" width="10" height="10" rx="2" fill="url(#gr)"/>
<rect x="176" y="121" width="10" height="10" rx="2" fill="url(#gr)"/>
<rect x="198" y="121" width="10" height="10" rx="2" fill="url(#gr)"/>
<rect x="209" y="121" width="10" height="10" rx="2" fill="url(#gr)"/>
<rect x="220" y="121" width="10" height="10" rx="2" fill="url(#gr)"/>
<rect x="286" y="121" width="10" height="10" rx="2" fill="url(#gr)"/>
<rect x="297" y="121" width="10" height="10" rx="2" fill="url(#gr)"/>
<rect x="330" y="121" width="10" height="10" rx="2" fill="url(#gr)"/>
<rect x="352" y="121" width="10" height="10" rx="2" fill="url(#gr)"/>
<rect x="363" y="121" width="10" height="10" rx="2" fill="url(#gr)"/>
<rect x="374" y="121" width="10" height="10" rx="2" fill="url(#gr)"/>
<rect x="396" y="121" width="10" height="10" rx="2" fill="url(#gr)"/>
<rect x="88" y="132" width="10" height="10" rx="2" fill="url(#gr)"/>
<rect x="110" y="132" width="10" height="10" rx="2" fill="url(#gr)"/>
<rect x="121" y="132" width="10" height="10" rx="2" fill="url(#gr)"/>
<rect x="132" y="132" width="10" height="10" rx="2" fill="url(#gr)"/>
<rect x="154" y="132" width="10" height="10" rx="2" fill="url(#gr)"/>
<rect x="176" y="132" width="10" height="10" rx="2" fill="url(#gr)"/>
<rect x="198" y="132" width="10" height="10" rx="2" fill="url(#gr)"/>
<rect x="330" y="132" width="10" height="10" rx="2" fill="url(#gr)"/>
<rect x="352" y="132" width="10" height="10" rx="2" fill="url(#gr)"/>
<rect x="363" y="132" width="10" height="10" rx="2" fill="url(#gr)"/>
<rect x="374" y="132" width="10" height="10" rx="2" fill="url(#gr)"/>
<rect x="396" y="132" width="10" height="10" rx="2" fill="url(#gr)"/>
<rect x="88" y="143" width="10" height="10" rx="2" fill="url(#gr)"/>
<rect x="154" y="143" width="10" height="10" rx="2" fill="url(#gr)"/>
<rect x="176" y="143" width="10" height="10" rx="2" fill="url(#gr)"/>
<rect x="187" y="143" width="10" height="10" rx="2" fill="url(#gr)"/>
<rect x="198" y="143" width="10" height="10" rx="2" fill="url(#gr)"/>
<rect x="264" y="143" width="10" height="10" rx="2" fill="url(#gr)"/>
<rect x="297" y="143" width="10" height="10" rx="2" fill="url(#gr)"/>
<rect x="330" y="143" width="10" height="10" rx="2" fill="url(#gr)"/>
<rect x="396" y="143" width="10" height="10" rx="2" fill="url(#gr)"/>
<rect x="88" y="154" width="10" height="10" rx="2" fill="url(#gr)"/>
<rect x="99" y="154" width="10" height="10" rx="2" fill="url(#gr)"/>
<rect x="110" y="154" width="10" height="10" rx="2" fill="url(#gr)"/>
<rect x="121" y="154" width="10" height="10" rx="2" fill="url(#gr)"/>
<rect x="132" y="154" width="10" height="10" rx="2" fill="url(#gr)"/>
<rect x="143" y="154" width="10" height="10" rx="2" fill="url(#gr)"/>
<rect x="154" y="154" width="10" height="10" rx="2" fill="url(#gr)"/>
<rect x="176" y="154" width="10" height="10" rx="2" fill="url(#gr)"/>
<rect x="198" y="154" width="10" height="10" rx="2" fill="url(#gr)"/>
<rect x="220" y="154" width="10" height="10" rx="2" fill="url(#gr)"/>
<rect x="242" y="154" width="10" height="10" rx="2" fill="url(#gr)"/>
<rect x="264" y="154" width="10" height="10" rx="2" fill="url(#gr)"/>
<rect x="286" y="154" width="10" height="10" rx="2" fill="url(#gr)"/>
<rect x="308" y="154" width="10" height="10" rx="2" fill="url(#gr)"/>
<rect x="330" y="154" width="10" height="10" rx="2" fill="url(#gr)"/>
<rect x="341" y="154" width="10" height="10" rx="2" fill="url(#gr)"/>
<rect x="352" y="154" width="10" height="10" rx="2" fill="url(#gr)"/>
<rect x="363" y="154" width="10" height="10" rx="2" fill="url(#gr)"/>
<rect x="374" y="154" width="10" height="10" rx="2" fill="url(#gr)"/>
<rect x="385" y="154" width="10" height="10" rx="2" fill="url(#gr)"/>
<rect x="396" y="154" width="10" height="10" rx="2" fill="url(#gr)"/>
<rect x="176" y="165" width="10" height="10" rx="2" fill="url(#gr)"/>
<rect x="209" y="165" width="10" height="10" rx="2" fill="url(#gr)"/>
<rect x="231" y="165" width="10" height="10" rx="2" fill="url(#gr)"/>
<rect x="253" y="165" width="10" height="10" rx="2" fill="url(#gr)"/>
<rect x="264" y="165" width="10" height="10" rx="2" fill="url(#gr)"/>
<rect x="275" y="165" width="10" height="10" rx="2" fill="url(#gr)"/>
<rect x="297" y="165" width="10" height="10" rx="2" fill="url(#gr)"/>
<rect x="308" y="165" width="10" height="10" rx="2" fill="url(#gr)"/>
<rect x="88" y="176" width="10" height="10" rx="2" fill="url(#gr)"/>
<rect x="132" y="176" width="10" height="10" rx="2" fill="url(#gr)"/>
<rect x="154" y="176" width="10" height="10" rx="2" fill="url(#gr)"/>
<rect x="165" y="176" width="10" height="10" rx="2" fill="url(#gr)"/>
<rect x="176" y="176" width="10" height="10" rx="2" fill="url(#gr)"/>
<rect x="187" y="176" width="10" height="10" rx="2" fill="url(#gr)"/>
<rect x="209" y="176" width="10" height="10" rx="2" fill="url(#gr)"/>
<rect x="231" y="176" width="10" height="10" rx="2" fill="url(#gr)"/>
<rect x="275" y="176" width="10" height="10" rx="2" fill="url(#gr)"/>
<rect x="308" y="176" width="10" height="10" rx="2" fill="url(#gr)"/>
<rect x="319" y="176" width="10" height="10" rx="2" fill="url(#gr)"/>
<rect x="330" y="176" width="10" height="10" rx="2" fill="url(#gr)"/>
<rect x="341" y="176" width="10" height="10" rx="2" fill="url(#gr)"/>
<rect x="352" y="176" width="10" height="10" rx="2" fill="url(#gr)"/>
<rect x="363" y="176" width="10" height="10" rx="2" fill="url(#gr)"/>
<rect x="396" y="176" width="10" height="10" rx="2" fill="url(#gr)"/>
<rect x="88" y="187" width="10" height="10" rx="2" fill="url(#gr)"/>
<rect x="110" y="187" width="10" height="10" rx="2" fill="url(#gr)"/>
<rect x="132" y="187" width="10" height="10" rx="2" fill="url(#gr)"/>
<rect x="165" y="187" width="10" height="10" rx="2" fill="url(#gr)"/>
<rect x="187" y="187" width="10" height="10" rx="2" fill="url(#gr)"/>
<rect x="209" y="187" width="10" height="10" rx="2" fill="url(#gr)"/>
<rect x="231" y="187" width="10" height="10" rx="2" fill="url(#gr)"/>
<rect x="242" y="187" width="10" height="10" rx="2" fill="url(#gr)"/>
<rect x="264" y="187" width="10" height="10" rx="2" fill="url(#gr)"/>
<rect x="275" y="187" width="10" height="10" rx="2" fill="url(#gr)"/>
<rect x="286" y="187" width="10" height="10" rx="2" fill="url(#gr)"/>
<rect x="330" y="187" width="10" height="10" rx="2" fill="url(#gr)"/>
<rect x="341" y="187" width="10" height="10" rx="2" fill="url(#gr)"/>
<rect x="352" y="187" width="10" height="10" rx="2" fill="url(#gr)"/>
<rect x="363" y="187" width="10" height="10" rx="2" fill="url(#gr)"/>
<rect x="374" y="187" width="10" height="10" rx="2" fill="url(#gr)"/>
<rect x="385" y="187" width="10" height="10" rx="2" fill="url(#gr)"/>
<rect x="396" y="187" width="10" height="10" rx="2" fill="url(#gr)"/>
<rect x="110" y="198" width="10" height="10" rx="2" fill="url(#gr)"/>
<rect x="154" y="198" width="10" height="10" rx="2" fill="url(#gr)"/>
<rect x="209" y="198" width="10" height="10" rx="2" fill="url(#gr)"/>
<rect x="220" y="198" width="10" height="10" rx="2" fill="url(#gr)"/>
<rect x="264" y="198" width="10" height="10" rx="2" fill="url(#gr)"/>
<rect x="275" y="198" width="10" height="10" rx="2" fill="url(#gr)"/>
<rect x="308" y="198" width="10" height="10" rx="2" fill="url(#gr)"/>
<rect x="396" y="198" width="10" height="10" rx="2" fill="url(#gr)"/>
<rect x="132" y="209" width="10" height="10" rx="2" fill="url(#gr)"/>
<rect x="165" y="209" width="10" height="10" rx="2" fill="url(#gr)"/>
<rect x="176" y="209" width="10" height="10" rx="2" fill="url(#gr)"/>
<rect x="187" y="209" width="10" height="10" rx="2" fill="url(#gr)"/>
<rect x="209" y="209" width="10" height="10" rx="2" fill="url(#gr)"/>
<rect x="242" y="209" width="10" height="10" rx="2" fill="url(#gr)"/>
<rect x="275" y="209" width="10" height="10" rx="2" fill="url(#gr)"/>
<rect x="286" y="209" width="10" height="10" rx="2" fill="url(#gr)"/>
<rect x="297" y="209" width="10" height="10" rx="2" fill="url(#gr)"/>
<rect x="319" y="209" width="10" height="10" rx="2" fill="url(#gr)"/>
<rect x="341" y="209" width="10" height="10" rx="2" fill="url(#gr)"/>
<rect x="352" y="209" width="10" height="10" rx="2" fill="url(#gr)"/>
<rect x="363" y="209" width="10" height="10" rx="2" fill="url(#gr)"/>
<rect x="385" y="209" width="10" height="10" rx="2" fill="url(#gr)"/>
<rect x="396" y="209" width="10" height="10" rx="2" fill="url(#gr)"/>
<rect x="99" y="220" width="10" height="10" rx="2" fill="url(#gr)"/>
<rect x="110" y="220" width="10" height="10" rx="2" fill="url(#gr)"/>
<rect x="121" y="220" width="10" height="10" rx="2" fill="url(#gr)"/>
<rect x="132" y="220" width="10" height="10" rx="2" fill="url(#gr)"/>
<rect x="143" y="220" width="10" height="10" rx="2" fill="url(#gr)"/>
<rect x="154" y="220" width="10" height="10" rx="2" fill="url(#gr)"/>
<rect x="176" y="220" width="10" height="10" rx="2" fill="url(#gr)"/>
<rect x="187" y="220" width="10" height="10" rx="2" fill="url(#gr)"/>
<rect x="209" y="220" width="10" height="10" rx="2" fill="url(#gr)"/>
<rect x="220" y="220" width="10" height="10" rx="2" fill="url(#gr)"/>
<rect x="231" y="220" width="10" height="10" rx="2" fill="url(#gr)"/>
<rect x="242" y="220" width="10" height="10" rx="2" fill="url(#gr)"/>
<rect x="253" y="220" width="10" height="10" rx="2" fill="url(#gr)"/>
<rect x="264" y="220" width="10" height="10" rx="2" fill="url(#gr)"/>
<rect x="275" y="220" width="10" height="10" rx="2" fill="url(#gr)"/>
<rect x="297" y="220" width="10" height="10" rx="2" fill="url(#gr)"/>
<rect x="319" y="220" width="10" height="10" rx="2" fill="url(#gr)"/>
<rect x="385" y="220" width="10" height="10" rx="2" fill="url(#gr)"/>
<rect x="88" y="231" width="10" height="10" rx="2" fill="url(#gr)"/>
<rect x="99" y="231" width="10" height="10" rx="2" fill="url(#gr)"/>
<rect x="110" y="231" width="10" height="10" rx="2" fill="url(#gr)"/>
<rect x="121" y="231" width="10" height="10" rx="2" fill="url(#gr)"/>
<rect x="176" y="231" width="10" height="10" rx="2" fill="url(#gr)"/>
<rect x="187" y="231" width="10" height="10" rx="2" fill="url(#gr)"/>
<rect x="220" y="231" width="10" height="10" rx="2" fill="url(#gr)"/>
<rect x="275" y="231" width="10" height="10" rx="2" fill="url(#gr)"/>
<rect x="286" y="231" width="10" height="10" rx="2" fill="url(#gr)"/>
<rect x="330" y="231" width="10" height="10" rx="2" fill="url(#gr)"/>
<rect x="341" y="231" width="10" height="10" rx="2" fill="url(#gr)"/>
<rect x="352" y="231" width="10" height="10" rx="2" fill="url(#gr)"/>
<rect x="363" y="231" width="10" height="10" rx="2" fill="url(#gr)"/>
<rect x="374" y="231" width="10" height="10" rx="2" fill="url(#gr)"/>
<rect x="385" y="231" width="10" height="10" rx="2" fill="url(#gr)"/>
<rect x="396" y="231" width="10" height="10" rx="2" fill="url(#gr)"/>
<rect x="132" y="242" width="10" height="10" rx="2" fill="url(#gr)"/>
<rect x="154" y="242" width="10" height="10" rx="2" fill="url(#gr)"/>
<rect x="176" y="242" width="10" height="10" rx="2" fill="url(#gr)"/>
<rect x="231" y="242" width="10" height="10" rx="2" fill="url(#gr)"/>
<rect x="242" y="242" width="10" height="10" rx="2" fill="url(#gr)"/>
<rect x="253" y="242" width="10" height="10" rx="2" fill="url(#gr)"/>
<rect x="286" y="242" width="10" height="10" rx="2" fill="url(#gr)"/>
<rect x="330" y="242" width="10" height="10" rx="2" fill="url(#gr)"/>
<rect x="352" y="242" width="10" height="10" rx="2" fill="url(#gr)"/>
<rect x="363" y="242" width="10" height="10" rx="2" fill="url(#gr)"/>
<rect x="374" y="242" width="10" height="10" rx="2" fill="url(#gr)"/>
<rect x="396" y="242" width="10" height="10" rx="2" fill="url(#gr)"/>
<rect x="121" y="253" width="10" height="10" rx="2" fill="url(#gr)"/>
<rect x="165" y="253" width="10" height="10" rx="2" fill="url(#gr)"/>
<rect x="198" y="253" width="10" height="10" rx="2" fill="url(#gr)"/>
<rect x="209" y="253" width="10" height="10" rx="2" fill="url(#gr)"/>
<rect x="220" y="253" width="10" height="10" rx="2" fill="url(#gr)"/>
<rect x="231" y="253" width="10" height="10" rx="2" fill="url(#gr)"/>
<rect x="253" y="253" width="10" height="10" rx="2" fill="url(#gr)"/>
<rect x="264" y="253" width="10" height="10" rx="2" fill="url(#gr)"/>
<rect x="275" y="253" width="10" height="10" rx="2" fill="url(#gr)"/>
<rect x="286" y="253" width="10" height="10" rx="2" fill="url(#gr)"/>
<rect x="297" y="253" width="10" height="10" rx="2" fill="url(#gr)"/>
<rect x="308" y="253" width="10" height="10" rx="2" fill="url(#gr)"/>
<rect x="330" y="253" width="10" height="10" rx="2" fill="url(#gr)"/>
<rect x="385" y="253" width="10" height="10" rx="2" fill="url(#gr)"/>
<rect x="396" y="253" width="10" height="10" rx="2" fill="url(#gr)"/>
<rect x="99" y="264" width="10" height="10" rx="2" fill="url(#gr)"/>
<rect x="110" y="264" width="10" height="10" rx="2" fill="url(#gr)"/>
<rect x="132" y="264" width="10" height="10" rx="2" fill="url(#gr)"/>
<rect x="154" y="264" width="10" height="10" rx="2" fill="url(#gr)"/>
<rect x="209" y="264" width="10" height="10" rx="2" fill="url(#gr)"/>
<rect x="231" y="264" width="10" height="10" rx="2" fill="url(#gr)"/>
<rect x="275" y="264" width="10" height="10" rx="2" fill="url(#gr)"/>
<rect x="308" y="264" width="10" height="10" rx="2" fill="url(#gr)"/>
<rect x="385" y="264" width="10" height="10" rx="2" fill="url(#gr)"/>
<rect x="88" y="275" width="10" height="10" rx="2" fill="url(#gr)"/>
<rect x="99" y="275" width="10" height="10" rx="2" fill="url(#gr)"/>
<rect x="110" y="275" width="10" height="10" rx="2" fill="url(#gr)"/>
<rect x="132" y="275" width="10" height="10" rx="2" fill="url(#gr)"/>
<rect x="143" y="275" width="10" height="10" rx="2" fill="url(#gr)"/>
<rect x="198" y="275" width="10" height="10" rx="2" fill="url(#gr)"/>
<rect x="209" y="275" width="10" height="10" rx="2" fill="url(#gr)"/>
<rect x="220" y="275" width="10" height="10" rx="2" fill="url(#gr)"/>
<rect x="231" y="275" width="10" height="10" rx="2" fill="url(#gr)"/>
<rect x="242" y="275" width="10" height="10" rx="2" fill="url(#gr)"/>
<rect x="264" y="275" width="10" height="10" rx="2" fill="url(#gr)"/>
<rect x="275" y="275" width="10" height="10" rx="2" fill="url(#gr)"/>
<rect x="286" y="275" width="10" height="10" rx="2" fill="url(#gr)"/>
<rect x="308" y="275" width="10" height="10" rx="2" fill="url(#gr)"/>
<rect x="330" y="275" width="10" height="10" rx="2" fill="url(#gr)"/>
<rect x="341" y="275" width="10" height="10" rx="2" fill="url(#gr)"/>
<rect x="352" y="275" width="10" height="10" rx="2" fill="url(#gr)"/>
<rect x="363" y="275" width="10" height="10" rx="2" fill="url(#gr)"/>
<rect x="385" y="275" width="10" height="10" rx="2" fill="url(#gr)"/>
<rect x="396" y="275" width="10" height="10" rx="2" fill="url(#gr)"/>
<rect x="121" y="286" width="10" height="10" rx="2" fill="url(#gr)"/>
<rect x="143" y="286" width="10" height="10" rx="2" fill="url(#gr)"/>
<rect x="154" y="286" width="10" height="10" rx="2" fill="url(#gr)"/>
<rect x="176" y="286" width="10" height="10" rx="2" fill="url(#gr)"/>
<rect x="209" y="286" width="10" height="10" rx="2" fill="url(#gr)"/>
<rect x="220" y="286" width="10" height="10" rx="2" fill="url(#gr)"/>
<rect x="264" y="286" width="10" height="10" rx="2" fill="url(#gr)"/>
<rect x="286" y="286" width="10" height="10" rx="2" fill="url(#gr)"/>
<rect x="308" y="286" width="10" height="10" rx="2" fill="url(#gr)"/>
<rect x="341" y="286" width="10" height="10" rx="2" fill="url(#gr)"/>
<rect x="352" y="286" width="10" height="10" rx="2" fill="url(#gr)"/>
<rect x="374" y="286" width="10" height="10" rx="2" fill="url(#gr)"/>
<rect x="396" y="286" width="10" height="10" rx="2" fill="url(#gr)"/>
<rect x="110" y="297" width="10" height="10" rx="2" fill="url(#gr)"/>
<rect x="132" y="297" width="10" height="10" rx="2" fill="url(#gr)"/>
<rect x="165" y="297" width="10" height="10" rx="2" fill="url(#gr)"/>
<rect x="176" y="297" width="10" height="10" rx="2" fill="url(#gr)"/>
<rect x="198" y="297" width="10" height="10" rx="2" fill="url(#gr)"/>
<rect x="242" y="297" width="10" height="10" rx="2" fill="url(#gr)"/>
<rect x="275" y="297" width="10" height="10" rx="2" fill="url(#gr)"/>
<rect x="297" y="297" width="10" height="10" rx="2" fill="url(#gr)"/>
<rect x="319" y="297" width="10" height="10" rx="2" fill="url(#gr)"/>
<rect x="352" y="297" width="10" height="10" rx="2" fill="url(#gr)"/>
<rect x="385" y="297" width="10" height="10" rx="2" fill="url(#gr)"/>
<rect x="396" y="297" width="10" height="10" rx="2" fill="url(#gr)"/>
<rect x="88" y="308" width="10" height="10" rx="2" fill="url(#gr)"/>
<rect x="99" y="308" width="10" height="10" rx="2" fill="url(#gr)"/>
<rect x="132" y="308" width="10" height="10" rx="2" fill="url(#gr)"/>
<rect x="143" y="308" width="10" height="10" rx="2" fill="url(#gr)"/>
<rect x="154" y="308" width="10" height="10" rx="2" fill="url(#gr)"/>
<rect x="165" y="308" width="10" height="10" rx="2" fill="url(#gr)"/>
<rect x="209" y="308" width="10" height="10" rx="2" fill="url(#gr)"/>
<rect x="231" y="308" width="10" height="10" rx="2" fill="url(#gr)"/>
<rect x="242" y="308" width="10" height="10" rx="2" fill="url(#gr)"/>
<rect x="253" y="308" width="10" height="10" rx="2" fill="url(#gr)"/>
<rect x="264" y="308" width="10" height="10" rx="2" fill="url(#gr)"/>
<rect x="275" y="308" width="10" height="10" rx="2" fill="url(#gr)"/>
<rect x="297" y="308" width="10" height="10" rx="2" fill="url(#gr)"/>
<rect x="308" y="308" width="10" height="10" rx="2" fill="url(#gr)"/>
<rect x="319" y="308" width="10" height="10" rx="2" fill="url(#gr)"/>
<rect x="330" y="308" width="10" height="10" rx="2" fill="url(#gr)"/>
<rect x="341" y="308" width="10" height="10" rx="2" fill="url(#gr)"/>
<rect x="352" y="308" width="10" height="10" rx="2" fill="url(#gr)"/>
<rect x="363" y="308" width="10" height="10" rx="2" fill="url(#gr)"/>
<rect x="396" y="308" width="10" height="10" rx="2" fill="url(#gr)"/>
<rect x="176" y="319" width="10" height="10" rx="2" fill="url(#gr)"/>
<rect x="187" y="319" width="10" height="10" rx="2" fill="url(#gr)"/>
<rect x="198" y="319" width="10" height="10" rx="2" fill="url(#gr)"/>
<rect x="209" y="319" width="10" height="10" rx="2" fill="url(#gr)"/>
<rect x="220" y="319" width="10" height="10" rx="2" fill="url(#gr)"/>
<rect x="308" y="319" width="10" height="10" rx="2" fill="url(#gr)"/>
<rect x="352" y="319" width="10" height="10" rx="2" fill="url(#gr)"/>
<rect x="396" y="319" width="10" height="10" rx="2" fill="url(#gr)"/>
<rect x="88" y="330" width="10" height="10" rx="2" fill="url(#gr)"/>
<rect x="99" y="330" width="10" height="10" rx="2" fill="url(#gr)"/>
<rect x="110" y="330" width="10" height="10" rx="2" fill="url(#gr)"/>
<rect x="121" y="330" width="10" height="10" rx="2" fill="url(#gr)"/>
<rect x="132" y="330" width="10" height="10" rx="2" fill="url(#gr)"/>
<rect x="143" y="330" width="10" height="10" rx="2" fill="url(#gr)"/>
<rect x="154" y="330" width="10" height="10" rx="2" fill="url(#gr)"/>
<rect x="176" y="330" width="10" height="10" rx="2" fill="url(#gr)"/>
<rect x="220" y="330" width="10" height="10" rx="2" fill="url(#gr)"/>
<rect x="231" y="330" width="10" height="10" rx="2" fill="url(#gr)"/>
<rect x="242" y="330" width="10" height="10" rx="2" fill="url(#gr)"/>
<rect x="253" y="330" width="10" height="10" rx="2" fill="url(#gr)"/>
<rect x="297" y="330" width="10" height="10" rx="2" fill="url(#gr)"/>
<rect x="308" y="330" width="10" height="10" rx="2" fill="url(#gr)"/>
<rect x="330" y="330" width="10" height="10" rx="2" fill="url(#gr)"/>
<rect x="352" y="330" width="10" height="10" rx="2" fill="url(#gr)"/>
<rect x="363" y="330" width="10" height="10" rx="2" fill="url(#gr)"/>
<rect x="374" y="330" width="10" height="10" rx="2" fill="url(#gr)"/>
<rect x="396" y="330" width="10" height="10" rx="2" fill="url(#gr)"/>
<rect x="88" y="341" width="10" height="10" rx="2" fill="url(#gr)"/>
<rect x="154" y="341" width="10" height="10" rx="2" fill="url(#gr)"/>
<rect x="209" y="341" width="10" height="10" rx="2" fill="url(#gr)"/>
<rect x="231" y="341" width="10" height="10" rx="2" fill="url(#gr)"/>
<rect x="253" y="341" width="10" height="10" rx="2" fill="url(#gr)"/>
<rect x="264" y="341" width="10" height="10" rx="2" fill="url(#gr)"/>
<rect x="275" y="341" width="10" height="10" rx="2" fill="url(#gr)"/>
<rect x="286" y="341" width="10" height="10" rx="2" fill="url(#gr)"/>
<rect x="297" y="341" width="10" height="10" rx="2" fill="url(#gr)"/>
<rect x="308" y="341" width="10" height="10" rx="2" fill="url(#gr)"/>
<rect x="352" y="341" width="10" height="10" rx="2" fill="url(#gr)"/>
<rect x="396" y="341" width="10" height="10" rx="2" fill="url(#gr)"/>
<rect x="88" y="352" width="10" height="10" rx="2" fill="url(#gr)"/>
<rect x="110" y="352" width="10" height="10" rx="2" fill="url(#gr)"/>
<rect x="121" y="352" width="10" height="10" rx="2" fill="url(#gr)"/>
<rect x="132" y="352" width="10" height="10" rx="2" fill="url(#gr)"/>
<rect x="154" y="352" width="10" height="10" rx="2" fill="url(#gr)"/>
<rect x="176" y="352" width="10" height="10" rx="2" fill="url(#gr)"/>
<rect x="198" y="352" width="10" height="10" rx="2" fill="url(#gr)"/>
<rect x="231" y="352" width="10" height="10" rx="2" fill="url(#gr)"/>
<rect x="275" y="352" width="10" height="10" rx="2" fill="url(#gr)"/>
<rect x="286" y="352" width="10" height="10" rx="2" fill="url(#gr)"/>
<rect x="297" y="352" width="10" height="10" rx="2" fill="url(#gr)"/>
<rect x="308" y="352" width="10" height="10" rx="2" fill="url(#gr)"/>
<rect x="319" y="352" width="10" height="10" rx="2" fill="url(#gr)"/>
<rect x="330" y="352" width="10" height="10" rx="2" fill="url(#gr)"/>
<rect x="341" y="352" width="10" height="10" rx="2" fill="url(#gr)"/>
<rect x="352" y="352" width="10" height="10" rx="2" fill="url(#gr)"/>
<rect x="363" y="352" width="10" height="10" rx="2" fill="url(#gr)"/>
<rect x="385" y="352" width="10" height="10" rx="2" fill="url(#gr)"/>
<rect x="396" y="352" width="10" height="10" rx="2" fill="url(#gr)"/>
<rect x="88" y="363" width="10" height="10" rx="2" fill="url(#gr)"/>
<rect x="110" y="363" width="10" height="10" rx="2" fill="url(#gr)"/>
<rect x="121" y="363" width="10" height="10" rx="2" fill="url(#gr)"/>
<rect x="132" y="363" width="10" height="10" rx="2" fill="url(#gr)"/>
<rect x="154" y="363" width="10" height="10" rx="2" fill="url(#gr)"/>
<rect x="242" y="363" width="10" height="10" rx="2" fill="url(#gr)"/>
<rect x="264" y="363" width="10" height="10" rx="2" fill="url(#gr)"/>
<rect x="275" y="363" width="10" height="10" rx="2" fill="url(#gr)"/>
<rect x="286" y="363" width="10" height="10" rx="2" fill="url(#gr)"/>
<rect x="297" y="363" width="10" height="10" rx="2" fill="url(#gr)"/>
<rect x="308" y="363" width="10" height="10" rx="2" fill="url(#gr)"/>
<rect x="319" y="363" width="10" height="10" rx="2" fill="url(#gr)"/>
<rect x="385" y="363" width="10" height="10" rx="2" fill="url(#gr)"/>
<rect x="88" y="374" width="10" height="10" rx="2" fill="url(#gr)"/>
<rect x="110" y="374" width="10" height="10" rx="2" fill="url(#gr)"/>
<rect x="121" y="374" width="10" height="10" rx="2" fill="url(#gr)"/>
<rect x="132" y="374" width="10" height="10" rx="2" fill="url(#gr)"/>
<rect x="154" y="374" width="10" height="10" rx="2" fill="url(#gr)"/>
<rect x="198" y="374" width="10" height="10" rx="2" fill="url(#gr)"/>
<rect x="209" y="374" width="10" height="10" rx="2" fill="url(#gr)"/>
<rect x="231" y="374" width="10" height="10" rx="2" fill="url(#gr)"/>
<rect x="264" y="374" width="10" height="10" rx="2" fill="url(#gr)"/>
<rect x="286" y="374" width="10" height="10" rx="2" fill="url(#gr)"/>
<rect x="297" y="374" width="10" height="10" rx="2" fill="url(#gr)"/>
<rect x="308" y="374" width="10" height="10" rx="2" fill="url(#gr)"/>
<rect x="363" y="374" width="10" height="10" rx="2" fill="url(#gr)"/>
<rect x="374" y="374" width="10" height="10" rx="2" fill="url(#gr)"/>
<rect x="385" y="374" width="10" height="10" rx="2" fill="url(#gr)"/>
<rect x="396" y="374" width="10" height="10" rx="2" fill="url(#gr)"/>
<rect x="88" y="385" width="10" height="10" rx="2" fill="url(#gr)"/>
<rect x="154" y="385" width="10" height="10" rx="2" fill="url(#gr)"/>
<rect x="187" y="385" width="10" height="10" rx="2" fill="url(#gr)"/>
<rect x="209" y="385" width="10" height="10" rx="2" fill="url(#gr)"/>
<rect x="242" y="385" width="10" height="10" rx="2" fill="url(#gr)"/>
<rect x="275" y="385" width="10" height="10" rx="2" fill="url(#gr)"/>
<rect x="286" y="385" width="10" height="10" rx="2" fill="url(#gr)"/>
<rect x="308" y="385" width="10" height="10" rx="2" fill="url(#gr)"/>
<rect x="330" y="385" width="10" height="10" rx="2" fill="url(#gr)"/>
<rect x="363" y="385" width="10" height="10" rx="2" fill="url(#gr)"/>
<rect x="385" y="385" width="10" height="10" rx="2" fill="url(#gr)"/>
<rect x="396" y="385" width="10" height="10" rx="2" fill="url(#gr)"/>
<rect x="88" y="396" width="10" height="10" rx="2" fill="url(#gr)"/>
<rect x="99" y="396" width="10" height="10" rx="2" fill="url(#gr)"/>
<rect x="110" y="396" width="10" height="10" rx="2" fill="url(#gr)"/>
<rect x="121" y="396" width="10" height="10" rx="2" fill="url(#gr)"/>
<rect x="132" y="396" width="10" height="10" rx="2" fill="url(#gr)"/>
<rect x="143" y="396" width="10" height="10" rx="2" fill="url(#gr)"/>
<rect x="154" y="396" width="10" height="10" rx="2" fill="url(#gr)"/>
<rect x="176" y="396" width="10" height="10" rx="2" fill="url(#gr)"/>
<rect x="187" y="396" width="10" height="10" rx="2" fill="url(#gr)"/>
<rect x="198" y="396" width="10" height="10" rx="2" fill="url(#gr)"/>
<rect x="253" y="396" width="10" height="10" rx="2" fill="url(#gr)"/>
<rect x="286" y="396" width="10" height="10" rx="2" fill="url(#gr)"/>
<rect x="308" y="396" width="10" height="10" rx="2" fill="url(#gr)"/>
<rect x="330" y="396" width="10" height="10" rx="2" fill="url(#gr)"/>
<rect x="341" y="396" width="10" height="10" rx="2" fill="url(#gr)"/>
<rect x="352" y="396" width="10" height="10" rx="2" fill="url(#gr)"/>
<rect x="363" y="396" width="10" height="10" rx="2" fill="url(#gr)"/>
<rect x="385" y="396" width="10" height="10" rx="2" fill="url(#gr)"/>
</svg>